   <svg
    width="16"
    height="16"
    viewBox="0 0 16 16"
    fill="none"
    xmlns="http://www.w3.org/2000/svg">
    <use href="#icon_zoom" />
    <path
      d="M11.0769 0V1.23077H12.6769C13.2374 1.23215 13.7909 1.10588 14.2954 0.861538L14.3692 0.824615L0.830769 14.3631V14.3262C1.08665 13.8223 1.2235 13.2665 1.23077 12.7015V11.0769H0V16H4.92308V14.7692H3.29846C2.75388 14.7685 2.21592 14.8883 1.72308 15.12L1.65538 15.1508L15.1938 1.61231V1.67385C14.9257 2.183 14.7803 2.74777 14.7692 3.32308V4.92308H16V0H11.0769Z"
      fill="currentColor"
    />
    <path
      d="M7.13846 6.33231L1.66154 0.855385H1.69846C2.19308 1.09735 2.73554 1.22558 3.28615 1.23077H4.92308V0H0V4.92308H1.23077V3.28615C1.23065 2.74827 1.11308 2.21692 0.886154 1.72923L0.855385 1.66154L6.33231 7.13846L7.13846 6.33231Z"
      fill="currentColor"
    />
    <path
      d="M14.7692 11.0769V12.72C14.7693 13.2579 14.8869 13.7893 15.1138 14.2769L15.1384 14.3262L9.66767 8.85541L8.86151 9.66156L14.3323 15.1323H14.283C13.7949 14.8982 13.2613 14.7742 12.72 14.7693H11.0769V16H16V11.0769H14.7692Z"
      fill="currentColor"
    />
  </svg>